# xmcd
#
# Track frame offsets: 
#        150
#        13587
#        27562
#        40387
#        54437
#        68887
#        83362
#        98587
#        113950
#        130812
#        145287
#        159600
#        173375
#        189737
#        205337
#        221575
#        237662
#        250050
#        262962
#        275662
#
# Disc length: 3828 seconds
#
# Revision: 1
# Processed by: cddbd v1.5.2PL0 Copyright (c) Steve Scherf et al.
# Submitted via: ExactAudioCopy v0.99pb4
#
DISCID=1d0ef214
DTITLE=Various Artist - Texas Piano Blues 1929-1948
DYEAR=1900
DGENRE=Polka
TTITLE0=Nick Nichols - Rugger blues
TTITLE1=Nick Nichols - Riverside blues
TTITLE2=Nick Nichols - Frankie and Johnny (prt 1)
TTITLE3=Nick Nichols - Frankie and Johnny (prt 2)
TTITLE4=Perry Dixon - Back to Georgia blues
TTITLE5=Perry Dixon - Be mean to your baby
TTITLE6=Big Boy Knox - Blue man blues
TTITLE7=Big Boy Knox - Poor man blues
TTITLE8=Big Boy Knox - Eleven light city blues
TTITLE9=Big Boy Knox - Texas blues
TTITLE10=Joe Pullum - CWA blues
TTITLE11=Joe Pullum - Black gal what makes your head so hard (no 2)
TTITLE12=Joe Pullum - Black gal what makes your head so hard (no 3)
TTITLE13=Joe Pullum - Black gal what makes your head so hard (no 4)
TTITLE14=Joe Pullum - Telephone blues
TTITLE15=Joe Pullum - Bedroom blues
TTITLE16=Joe Pullum - Hattie Green
TTITLE17=Joe Pullum - My woman
TTITLE18=Whistlin' Alex Moore - I want my Mary
TTITLE19=Whistlin' Alex Moore - Miss no good weed
EXTD=
EXTT0=
EXTT1=
EXTT2=
EXTT3=
EXTT4=
EXTT5=
EXTT6=
EXTT7=
EXTT8=
EXTT9=
EXTT10=
EXTT11=
EXTT12=
EXTT13=
EXTT14=
EXTT15=
EXTT16=
EXTT17=
EXTT18=
EXTT19=
PLAYORDER=
